<?xml version="1.0" encoding="utf-8"?>

<!DOCTYPE svg PUBLIC "-//W3C//DTD SVG 1.1//EN" "http://www.w3.org/Graphics/SVG/1.1/DTD/svg11.dtd">
<!-- Uploaded to: SVG Repo, www.svgrepo.com, Generator: SVG Repo Mixer Tools -->
<svg version="1.1" id="_x32_" xmlns="http://www.w3.org/2000/svg" xmlns:xlink="http://www.w3.org/1999/xlink" 
	 width="800px" height="800px" viewBox="0 0 512 512"  xml:space="preserve">
<style type="text/css">
<![CDATA[
	.st0{fill:#000000;}
]]>
</style>
<g>
	<path class="st0" d="M459.109,181.602c-45.219-66.688-74.344-91.969-115.891-77.375c-21.531,7.563-36.625,26.953-36.625,49.781
		v30.297l-26.875-17.469V47.586h-47.422v119.25l-26.891,17.469v-30.297c0-22.828-15.094-42.219-36.625-49.781
		c-41.547-14.594-70.672,10.688-115.906,77.375C6.141,250.523,0,292.742,0,329.523v45.125c0,34.016,30.531,81.594,81.625,88.75
		c69.438,9.719,123.781-51.891,123.781-116.109V240.867L256,207.992l50.594,32.875v106.422c0,64.219,54.344,125.828,123.781,116.109
		c51.094-7.156,81.625-54.734,81.625-88.75v-45.125C512,292.742,505.844,250.523,459.109,181.602z"/>
</g>
</svg>