<?xml version="1.0" encoding="iso-8859-1"?>
<!-- Uploaded to: SVG Repo, www.svgrepo.com, Generator: SVG Repo Mixer Tools -->
<!DOCTYPE svg PUBLIC "-//W3C//DTD SVG 1.1//EN" "http://www.w3.org/Graphics/SVG/1.1/DTD/svg11.dtd">
<svg fill="#000000" height="800px" width="800px" version="1.1" id="Capa_1" xmlns="http://www.w3.org/2000/svg" xmlns:xlink="http://www.w3.org/1999/xlink" 
	 viewBox="0 0 206.637 206.637" xml:space="preserve">
<path d="M153.074,170.291c-7.045,13.19-14.576,23.687-20.284,28.58c-6.012,5.153-12.752,7.767-20.032,7.767
	c-14.676,0-31.813-10.481-52.389-32.042c-19.268-20.189-25.259-43.386-26.892-59.291c-1.868-18.185,1.243-36.145,7.925-45.754
	c0.078-0.112,0.161-0.22,0.25-0.323c0.217-0.253,0.836-0.968,1.696-1.939c13.403,3.252,34.674,10.711,48.272,26.948
	c12.1,14.447,17.531,28.163,21.895,39.185c3.657,9.237,6.815,17.214,12.677,23.075C134.047,164.35,145.299,168.345,153.074,170.291z
	 M97.754,89.099c10.469,12.5,16.193,24.306,20.422,34.482c6.04-1.26,20.358-5.36,31.97-17.362
	c9.172-9.479,14.138-25.945,16.646-37.592c-4.027-6.218-9.3-9.001-14.394-11.05c-1.104-0.443-2.057-0.827-2.695-1.199
	c-1.93-1.126-3.262-10.092-0.746-23.999c1.158-6.4,2.194-8.687,2.272-8.854c0.573-1.092,0.611-2.391,0.098-3.517
	c-0.526-1.155-1.569-1.991-2.81-2.255l-11-2.334c-2.126-0.453-4.217,0.874-4.721,2.984c-2.63,11.017-7.923,29.937-10.933,33.807
	c-0.286,0.368-0.844,0.985-1.366,0.985c-1.133,0-3.331-2.222-3.481-5.387c-0.264-5.531,1.829-33.267,2.658-43.486
	c0.09-1.113-0.289-2.214-1.046-3.035S116.804,0,115.687,0h-9.333c-2.103,0-3.847,1.629-3.991,3.727
	c-0.021,0.303-2.092,30.35-3.978,40.097c-0.784,4.05-2.414,12.477-4.98,12.477c-0.345,0-0.957-0.093-1.915-0.534
	c-4.64-2.139-8.218-18.239-9.565-24.301c-1.875-8.435-1.905-16.717-1.905-16.798c0-1.241-0.576-2.412-1.56-3.17
	c-0.984-0.757-2.263-1.014-3.463-0.697l-11.333,3c-2.12,0.562-3.393,2.725-2.854,4.851c0.026,0.102,2.607,10.313,4.342,19.591
	c1.056,5.65-1.338,11.347-6.101,14.512c-1.081,0.719-2.116,1.417-3.02,2.045c-1.806,1.254-4.161,3.459-6.444,5.778
	C63.999,64.556,84.046,72.732,97.754,89.099z M155.895,111.781c-12.347,12.761-27.064,17.6-34.683,19.344
	c3.345,8.442,6.066,15.142,10.637,19.713c7.15,7.149,18.178,10.586,24.956,12.109c9.455-19.578,17.164-43.386,16.882-63.671
	c-0.1-7.208-0.775-13.091-1.871-17.949C168.617,92.02,163.607,103.811,155.895,111.781z"/>
</svg>